<svg width="250" height="250" version="1.1" xmlns="http://www.w3.org/2000/svg" desc="Created with imagetracer.js version 1.2.6" ><path fill="rgb(254,255,155)" stroke="rgb(254,255,155)" stroke-width="1" opacity="0.4627450980392157" d="M 111.5 13 L 119 13.5 L 111.5 14 L 111.5 13 Z " /><path fill="rgb(254,255,155)" stroke="rgb(254,255,155)" stroke-width="1" opacity="0.4627450980392157" d="M 133.5 13 L 141 13.5 L 133.5 14 L 133.5 13 Z " /><path fill="rgb(254,255,155)" stroke="rgb(254,255,155)" stroke-width="1" opacity="0.4627450980392157" d="M 105.5 14 L 109 14.5 L 105.5 15 L 105.5 14 Z " /><path fill="rgb(254,255,155)" stroke="rgb(254,255,155)" stroke-width="1" opacity="0.4627450980392157" d="M 143.5 14 L 147 14.5 L 143.5 15 L 143.5 14 Z " /><path fill="rgb(254,255,155)" stroke="rgb(254,255,155)" stroke-width="1" opacity="0.4627450980392157" d="M 100.5 15 L 104 15.5 L 100.5 16 L 100.5 15 Z " /><path fill="rgb(254,255,155)" stroke="rgb(254,255,155)" stroke-width="1" opacity="0.4627450980392157" d="M 148.5 15 L 152 15.5 L 148.5 16 L 148.5 15 Z " /><path fill="rgb(254,255,155)" stroke="rgb(254,255,155)" stroke-width="1" opacity="0.4627450980392157" d="M 96.5 16 L 99 16.5 L 96.5 17 L 96.5 16 Z " /><path fill="rgb(254,255,155)" stroke="rgb(254,255,155)" stroke-width="1" opacity="0.4627450980392157" d="M 153.5 16 L 156 16.5 L 153.5 17 L 153.5 16 Z " /><path fill="rgb(254,255,155)" stroke="rgb(254,255,155)" stroke-width="1" opacity="0.4627450980392157" d="M 84.5 20 L 86 20.5 L 82.5 22 L 82.5 21 L 84.5 20 Z " /><path fill="rgb(254,255,155)" stroke="rgb(254,255,155)" stroke-width="1" opacity="0.4627450980392157" d="M 166.5 20 L 170 21.5 L 168.5 22 L 166.5 20 Z " /><path fill="rgb(254,255,155)" stroke="rgb(254,255,155)" stroke-width="1" opacity="0.4627450980392157" d="M 79.5 22 L 81 22.5 L 70.5 28 L 71.5 26 L 79.5 22 Z " /><path fill="rgb(254,255,155)" stroke="rgb(254,255,155)" stroke-width="1" opacity="0.4627450980392157" d="M 171.5 22 L 182 27.5 L 180.5 27 L 171.5 23 L 171.5 22 Z " /><path fill="rgb(254,255,155)" stroke="rgb(254,255,155)" stroke-width="1" opacity="0.4627450980392157" d="M 68.5 28 L 67.5 30 L 58.5 36 L 60.5 33 L 68.5 28 Z " /><path fill="rgb(254,255,155)" stroke="rgb(254,255,155)" stroke-width="1" opacity="0.4627450980392157" d="M 183.5 28 L 194 35.5 L 191.5 34 L 184.5 30 L 183.5 28 Z " /><path fill="rgb(254,255,155)" stroke="rgb(254,255,155)" stroke-width="1" opacity="0.4627450980392157" d="M 56.5 36 L 52.5 41 L 41 51.5 L 36.5 57 L 40 52.5 L 51.5 40 L 56.5 36 Z " /><path fill="rgb(254,255,155)" stroke="rgb(254,255,155)" stroke-width="1" opacity="0.4627450980392157" d="M 195.5 36 L 212 51.5 L 216 56.5 L 211 52.5 L 200.5 41 L 195.5 36 Z " /><path fill="rgb(254,255,155)" stroke="rgb(254,255,155)" stroke-width="1" opacity="0.4627450980392157" d="M 35.5 58 L 34 60.5 L 28.5 69 L 29 67.5 L 35.5 58 Z " /><path fill="rgb(254,255,155)" stroke="rgb(254,255,155)" stroke-width="1" opacity="0.4627450980392157" d="M 216.5 58 L 224 68.5 L 222 67.5 L 216.5 58 Z " /><path fill="rgb(254,255,155)" stroke="rgb(254,255,155)" stroke-width="1" opacity="0.4627450980392157" d="M 27.5 70 L 27 71.5 L 22.5 81 L 22 79.5 L 27.5 70 Z " /><path fill="rgb(254,255,155)" stroke="rgb(254,255,155)" stroke-width="1" opacity="0.4627450980392157" d="M 224.5 70 L 230 80.5 L 229 80.5 L 224.5 70 Z " /><path fill="rgb(254,255,155)" stroke="rgb(254,255,155)" stroke-width="1" opacity="0.4627450980392157" d="M 21.5 82 L 22 83.5 L 20.5 86 L 20 84.5 L 21.5 82 Z " /><path fill="rgb(254,255,155)" stroke="rgb(254,255,155)" stroke-width="1" opacity="0.4627450980392157" d="M 230.5 82 L 232 85.5 L 231 85.5 L 230.5 82 Z " /><path fill="rgb(254,255,155)" stroke="rgb(254,255,155)" stroke-width="1" opacity="0.4627450980392157" d="M 16.5 96 L 17 98.5 L 16 98.5 L 16.5 96 Z " /><path fill="rgb(254,255,155)" stroke="rgb(254,255,155)" stroke-width="1" opacity="0.4627450980392157" d="M 235.5 96 L 236 98.5 L 235 98.5 L 235.5 96 Z " /><path fill="rgb(254,255,155)" stroke="rgb(254,255,155)" stroke-width="1" opacity="0.4627450980392157" d="M 15.5 100 L 16 103.5 L 15 103.5 L 15.5 100 Z " /><path fill="rgb(254,255,155)" stroke="rgb(254,255,155)" stroke-width="1" opacity="0.4627450980392157" d="M 236.5 100 L 237 103.5 L 236 103.5 L 236.5 100 Z " /><path fill="rgb(254,255,155)" stroke="rgb(254,255,155)" stroke-width="1" opacity="0.4627450980392157" d="M 14.5 105 L 15 108.5 L 14 108.5 L 14.5 105 Z " /><path fill="rgb(254,255,155)" stroke="rgb(254,255,155)" stroke-width="1" opacity="0.4627450980392157" d="M 237.5 105 L 238 108.5 L 237 108.5 L 237.5 105 Z " /><path fill="rgb(254,255,155)" stroke="rgb(254,255,155)" stroke-width="1" opacity="0.4627450980392157" d="M 13.5 111 L 14 118.5 L 13 118.5 L 13.5 111 Z " /><path fill="rgb(254,255,155)" stroke="rgb(254,255,155)" stroke-width="1" opacity="0.4627450980392157" d="M 13.5 133 L 14 140.5 L 13 140.5 L 13.5 133 Z " /><path fill="rgb(254,255,155)" stroke="rgb(254,255,155)" stroke-width="1" opacity="0.4627450980392157" d="M 14.5 143 L 15 146.5 L 14 146.5 L 14.5 143 Z " /><path fill="rgb(254,255,155)" stroke="rgb(254,255,155)" stroke-width="1" opacity="0.4627450980392157" d="M 237.5 143 L 238 146.5 L 237 146.5 L 237.5 143 Z " /><path fill="rgb(254,255,155)" stroke="rgb(254,255,155)" stroke-width="1" opacity="0.4627450980392157" d="M 15.5 148 L 16 151.5 L 15 151.5 L 15.5 148 Z " /><path fill="rgb(254,255,155)" stroke="rgb(254,255,155)" stroke-width="1" opacity="0.4627450980392157" d="M 236.5 148 L 237 151.5 L 236 151.5 L 236.5 148 Z " /><path fill="rgb(254,255,155)" stroke="rgb(254,255,155)" stroke-width="1" opacity="0.4627450980392157" d="M 16.5 153 L 17 155.5 L 16 155.5 L 16.5 153 Z " /><path fill="rgb(254,255,155)" stroke="rgb(254,255,155)" stroke-width="1" opacity="0.4627450980392157" d="M 235.5 153 L 236 155.5 L 235 155.5 L 235.5 153 Z " /><path fill="rgb(254,255,155)" stroke="rgb(254,255,155)" stroke-width="1" opacity="0.4627450980392157" d="M 20.5 166 L 22 169.5 L 21 169.5 L 20.5 166 Z " /><path fill="rgb(254,255,155)" stroke="rgb(254,255,155)" stroke-width="1" opacity="0.4627450980392157" d="M 231.5 166 L 232 167.5 L 230.5 170 L 230 168.5 L 231.5 166 Z " /><path fill="rgb(254,255,155)" stroke="rgb(254,255,155)" stroke-width="1" opacity="0.4627450980392157" d="M 22.5 171 L 28 181.5 L 26 180.5 L 22 172.5 L 22.5 171 Z " /><path fill="rgb(254,255,155)" stroke="rgb(254,255,155)" stroke-width="1" opacity="0.4627450980392157" d="M 229.5 171 L 230 172.5 L 224.5 182 L 225 180.5 L 229.5 171 Z " /><path fill="rgb(254,255,155)" stroke="rgb(254,255,155)" stroke-width="1" opacity="0.4627450980392157" d="M 28.5 183 L 36 193.5 L 33 191.5 L 28.5 183 Z " /><path fill="rgb(254,255,155)" stroke="rgb(254,255,155)" stroke-width="1" opacity="0.4627450980392157" d="M 223.5 183 L 223 184.5 L 216.5 194 L 218 191.5 L 223.5 183 Z " /><path fill="rgb(254,255,155)" stroke="rgb(254,255,155)" stroke-width="1" opacity="0.4627450980392157" d="M 36.5 195 L 51.5 211 L 57 215.5 L 52.5 212 L 40 200.5 L 36.5 195 Z " /><path fill="rgb(254,255,155)" stroke="rgb(254,255,155)" stroke-width="1" opacity="0.4627450980392157" d="M 215.5 195 L 212 199.5 L 200.5 212 L 195.5 216 L 199.5 211 L 211 200.5 L 215.5 195 Z " /><path fill="rgb(254,255,155)" stroke="rgb(254,255,155)" stroke-width="1" opacity="0.4627450980392157" d="M 58.5 216 L 69 223.5 L 67.5 223 Q 60.4 220.7 58.5 216 Z " /><path fill="rgb(254,255,155)" stroke="rgb(254,255,155)" stroke-width="1" opacity="0.4627450980392157" d="M 193.5 216 L 191.5 219 L 183.5 224 L 184.5 222 L 193.5 216 Z " /><path fill="rgb(254,255,155)" stroke="rgb(254,255,155)" stroke-width="1" opacity="0.4627450980392157" d="M 70.5 224 L 81 229.5 L 79.5 230 L 71.5 226 L 70.5 224 Z " /><path fill="rgb(254,255,155)" stroke="rgb(254,255,155)" stroke-width="1" opacity="0.4627450980392157" d="M 181.5 224 L 180.5 226 L 171.5 230 L 171.5 229 L 181.5 224 Z " /><path fill="rgb(254,255,155)" stroke="rgb(254,255,155)" stroke-width="1" opacity="0.4627450980392157" d="M 82.5 230 L 86 231.5 L 84.5 232 L 82.5 230 Z " /><path fill="rgb(254,255,155)" stroke="rgb(254,255,155)" stroke-width="1" opacity="0.4627450980392157" d="M 168.5 230 L 170 230.5 L 166.5 232 L 166.5 231 L 168.5 230 Z " /><path fill="rgb(254,255,155)" stroke="rgb(254,255,155)" stroke-width="1" opacity="0.4627450980392157" d="M 96.5 235 L 99 235.5 L 96.5 236 L 96.5 235 Z " /><path fill="rgb(254,255,155)" stroke="rgb(254,255,155)" stroke-width="1" opacity="0.4627450980392157" d="M 153.5 235 L 156 235.5 L 153.5 236 L 153.5 235 Z " /><path fill="rgb(254,255,155)" stroke="rgb(254,255,155)" stroke-width="1" opacity="0.4627450980392157" d="M 100.5 236 L 104 236.5 L 100.5 237 L 100.5 236 Z " /><path fill="rgb(254,255,155)" stroke="rgb(254,255,155)" stroke-width="1" opacity="0.4627450980392157" d="M 148.5 236 L 152 236.5 L 148.5 237 L 148.5 236 Z " /><path fill="rgb(254,255,155)" stroke="rgb(254,255,155)" stroke-width="1" opacity="0.4627450980392157" d="M 105.5 237 L 109 237.5 L 105.5 238 L 105.5 237 Z " /><path fill="rgb(254,255,155)" stroke="rgb(254,255,155)" stroke-width="1" opacity="0.4627450980392157" d="M 143.5 237 L 147 237.5 L 143.5 238 L 143.5 237 Z " /><path fill="rgb(254,254,254)" stroke="rgb(254,254,254)" stroke-width="1" opacity="0.996078431372549" d="M 119.5 13 L 124 13.5 L 119.5 14 L 119.5 13 Z " /><path fill="rgb(254,254,254)" stroke="rgb(254,254,254)" stroke-width="1" opacity="0.996078431372549" d="M 128.5 13 L 133 13.5 L 128.5 14 L 128.5 13 Z " /><path fill="rgb(254,254,254)" stroke="rgb(254,254,254)" stroke-width="1" opacity="0.996078431372549" d="M 57.5 36 L 56.5 38 L 57.5 36 Z " /><path fill="rgb(254,254,254)" stroke="rgb(254,254,254)" stroke-width="1" opacity="0.996078431372549" d="M 194.5 36 L 195.5 38 L 194.5 36 Z " /><path fill="rgb(254,254,254)" stroke="rgb(254,254,254)" stroke-width="1" opacity="0.996078431372549" d="M 51.5 41 L 50.5 43 L 51.5 41 Z " /><path fill="rgb(254,254,254)" stroke="rgb(254,254,254)" stroke-width="1" opacity="0.996078431372549" d="M 200.5 41 L 201.5 43 L 200.5 41 Z " /><path fill="rgb(254,254,254)" stroke="rgb(254,254,254)" stroke-width="1" opacity="0.996078431372549" d="M 42.5 50 L 41.5 52 L 42.5 50 Z " /><path fill="rgb(254,254,254)" stroke="rgb(254,254,254)" stroke-width="1" opacity="0.996078431372549" d="M 209.5 50 L 210.5 52 L 209.5 50 Z " /><path fill="rgb(254,254,254)" stroke="rgb(254,254,254)" stroke-width="1" opacity="0.996078431372549" d="M 37.5 56 L 36.5 58 L 37.5 56 Z " /><path fill="rgb(254,254,254)" stroke="rgb(254,254,254)" stroke-width="1" opacity="0.996078431372549" d="M 214.5 56 L 215.5 58 L 214.5 56 Z " /><path fill="rgb(254,254,254)" stroke="rgb(254,254,254)" stroke-width="1" opacity="0.996078431372549" d="M 150.5 100 L 153 100.5 L 149.5 102 L 150.5 100 Z " /><path fill="rgb(254,254,254)" stroke="rgb(254,254,254)" stroke-width="1" opacity="0.996078431372549" d="M 169.5 101 L 170.5 103 L 169.5 101 Z " /><path fill="rgb(254,254,254)" stroke="rgb(254,254,254)" stroke-width="1" opacity="0.996078431372549" d="M 170.5 107 L 169.5 109 L 170.5 107 Z " /><path fill="rgb(254,254,254)" stroke="rgb(254,254,254)" stroke-width="1" opacity="0.996078431372549" d="M 36.5 110 L 37 112.5 L 36 112.5 L 36.5 110 Z " /><path fill="rgb(254,254,254)" stroke="rgb(254,254,254)" stroke-width="1" opacity="0.996078431372549" d="M 59.5 110 L 58.5 112 L 59.5 110 Z " /><path fill="rgb(254,254,254)" stroke="rgb(254,254,254)" stroke-width="1" opacity="0.996078431372549" d="M 93.5 113 L 94.5 115 L 93.5 113 Z " /><path fill="rgb(254,254,254)" stroke="rgb(254,254,254)" stroke-width="1" opacity="0.996078431372549" d="M 169.5 113 L 170.5 115 L 169.5 113 Z " /><path fill="rgb(254,254,254)" stroke="rgb(254,254,254)" stroke-width="1" opacity="0.996078431372549" d="M 223.5 113 L 224.5 115 L 223.5 113 Z " /><path fill="rgb(254,254,254)" stroke="rgb(254,254,254)" stroke-width="1" opacity="0.996078431372549" d="M 130.5 115 L 127.5 119 L 130.5 115 Z " /><path fill="rgb(254,254,254)" stroke="rgb(254,254,254)" stroke-width="1" opacity="0.996078431372549" d="M 164.5 115 L 165 140.5 L 164 140.5 L 164.5 115 Z " /><path fill="rgb(254,254,254)" stroke="rgb(254,254,254)" stroke-width="1" opacity="0.996078431372549" d="M 13.5 119 L 14 123.5 L 13 123.5 L 13.5 119 Z " /><path fill="rgb(254,254,254)" stroke="rgb(254,254,254)" stroke-width="1" opacity="0.996078431372549" d="M 144.5 119 L 143.5 121 L 144.5 119 Z " /><path fill="rgb(254,254,254)" stroke="rgb(254,254,254)" stroke-width="1" opacity="0.996078431372549" d="M 124.5 126 L 125 129.5 L 124 129.5 L 124.5 126 Z " /><path fill="rgb(254,254,254)" stroke="rgb(254,254,254)" stroke-width="1" opacity="0.996078431372549" d="M 13.5 128 L 14 132.5 L 13 132.5 L 13.5 128 Z " /><path fill="rgb(254,254,254)" stroke="rgb(254,254,254)" stroke-width="1" opacity="0.996078431372549" d="M 33.5 131 L 34.5 133 L 33.5 131 Z " /><path fill="rgb(254,254,254)" stroke="rgb(254,254,254)" stroke-width="1" opacity="0.996078431372549" d="M 30.5 137 L 32.5 140 L 30.5 137 Z " /><path fill="rgb(254,254,254)" stroke="rgb(254,254,254)" stroke-width="1" opacity="0.996078431372549" d="M 215.5 137 L 216.5 139 L 215.5 137 Z " /><path fill="rgb(254,254,254)" stroke="rgb(254,254,254)" stroke-width="1" opacity="0.996078431372549" d="M 70.5 138 L 71.5 140 L 70.5 138 Z " /><path fill="rgb(254,254,254)" stroke="rgb(254,254,254)" stroke-width="1" opacity="0.996078431372549" d="M 91.5 138 L 93.5 141 L 91.5 138 Z " /><path fill="rgb(254,254,254)" stroke="rgb(254,254,254)" stroke-width="1" opacity="0.996078431372549" d="M 128.5 138 L 129.5 140 L 128.5 138 Z " /><path fill="rgb(254,254,254)" stroke="rgb(254,254,254)" stroke-width="1" opacity="0.996078431372549" d="M 170.5 141 L 169.5 143 L 170.5 141 Z " /><path fill="rgb(254,254,254)" stroke="rgb(254,254,254)" stroke-width="1" opacity="0.996078431372549" d="M 46.5 143 L 49 143.5 L 46.5 144 L 46.5 143 Z " /><path fill="rgb(254,254,254)" stroke="rgb(254,254,254)" stroke-width="1" opacity="0.996078431372549" d="M 36.5 194 L 37.5 196 L 36.5 194 Z " /><path fill="rgb(254,254,254)" stroke="rgb(254,254,254)" stroke-width="1" opacity="0.996078431372549" d="M 215.5 194 L 214.5 196 L 215.5 194 Z " /><path fill="rgb(254,254,254)" stroke="rgb(254,254,254)" stroke-width="1" opacity="0.996078431372549" d="M 41.5 200 L 42.5 202 L 41.5 200 Z " /><path fill="rgb(254,254,254)" stroke="rgb(254,254,254)" stroke-width="1" opacity="0.996078431372549" d="M 210.5 200 L 209.5 202 L 210.5 200 Z " /><path fill="rgb(254,254,254)" stroke="rgb(254,254,254)" stroke-width="1" opacity="0.996078431372549" d="M 50.5 209 L 51.5 211 L 50.5 209 Z " /><path fill="rgb(254,254,254)" stroke="rgb(254,254,254)" stroke-width="1" opacity="0.996078431372549" d="M 201.5 209 L 200.5 211 L 201.5 209 Z " /><path fill="rgb(254,254,254)" stroke="rgb(254,254,254)" stroke-width="1" opacity="0.996078431372549" d="M 56.5 214 L 57.5 216 L 56.5 214 Z " /><path fill="rgb(254,254,254)" stroke="rgb(254,254,254)" stroke-width="1" opacity="0.996078431372549" d="M 195.5 214 L 194.5 216 L 195.5 214 Z " /><path fill="rgb(255,255,255)" stroke="rgb(255,255,255)" stroke-width="1" opacity="1" d="M 124.5 13 L 151.5 16 L 174.5 24 Q 194.7 33.8 209 49.5 Q 226.9 68.1 235 96.5 L 238 111.5 L 238 140.5 L 235 155.5 L 226 178.5 Q 216.4 195.9 202.5 209 Q 183.9 226.9 155.5 235 L 140.5 238 L 111.5 238 L 96.5 235 L 73.5 226 Q 56.1 216.4 43 202.5 Q 29.1 187.9 21 167.5 L 15 146.5 L 13 124.5 L 14 123.5 L 14 111.5 L 16 100.5 L 24 77.5 Q 33.8 57.3 49.5 43 Q 64.2 29.1 84.5 21 L 100.5 16 L 111.5 14 L 123.5 14 L 124.5 13 Z M 40 100 L 36 102 L 30 109 L 31 117 L 40 123 L 51 125 Q 55 127 54 134 L 48 138 Q 41 139 38 136 L 34 131 Q 30 130 29 133 L 30 138 Q 34 143 42 144 Q 51 145 56 141 Q 60 138 61 132 L 59 125 L 52 119 L 43 118 L 39 116 Q 36 115 37 109 L 41 106 L 50 106 L 53 108 L 56 112 Q 59 113 60 111 L 59 107 Q 55 98 40 100 Z M 151 100 L 149 102 L 149 117 L 144 113 Q 135 112 131 115 Q 125 119 124 127 Q 124 135 128 139 L 135 143 Q 144 145 149 141 L 155 133 L 155 101 L 151 100 Z M 191 100 L 187 102 Q 180 105 181 114 Q 177 113 176 116 Q 174 120 179 119 L 181 119 L 181 142 L 183 143 Q 186 144 187 142 L 187 120 L 188 119 L 195 119 L 195 116 Q 193 112 187 114 L 188 109 Q 189 105 195 106 L 197 103 Q 196 99 191 100 Z M 167 101 L 166 102 Q 162 101 164 107 Q 165 110 170 109 L 172 106 L 171 103 Q 170 100 167 101 Z M 71 104 L 69 106 L 69 114 Q 65 113 64 116 Q 62 120 67 119 L 69 119 L 69 137 L 70 139 Q 72 144 82 143 Q 84 142 83 139 Q 82 136 78 137 L 75 134 L 75 119 L 82 119 Q 83 115 81 114 L 75 114 L 75 106 Q 74 103 71 104 Z M 91 113 L 89 115 L 89 135 L 91 139 L 97 143 L 102 144 L 108 143 L 110 141 Q 111 144 116 143 L 117 142 L 117 115 Q 116 112 113 113 L 111 115 L 111 133 L 110 135 L 108 137 L 104 138 L 98 136 L 95 133 L 95 115 Q 94 112 91 113 Z M 167 113 L 164 116 L 164 141 L 165 142 Q 164 145 170 143 L 171 142 L 171 115 Q 170 112 167 113 Z M 198 113 L 196 115 L 196 118 L 208 140 L 202 154 Q 202 157 207 156 L 209 154 L 214 143 L 225 118 L 225 115 Q 224 112 221 113 L 211 133 L 201 115 Q 202 112 198 113 Z " /><path fill="rgb(255,255,255)" stroke="rgb(255,255,255)" stroke-width="1" opacity="1" d="M 139.5 118 L 147 121.5 Q 149.8 124.2 149 130.5 L 145.5 136 L 144 135.5 Q 144.8 138.1 141.5 137 L 138.5 138 L 132 133.5 L 131 124.5 L 135.5 119 L 139.5 118 Z " /><path fill="rgb(0,7,5)" stroke="rgb(0,7,5)" stroke-width="1" opacity="0.09019607843137255" d="M 0 0 L 250 0 L 250 250 L 0 250 L 0 0 Z M 112 13 L 97 16 L 80 22 Q 64 29 52 40 Q 36 53 26 72 L 16 97 L 13 112 L 13 141 L 16 156 Q 24 182 40 201 Q 63 229 106 238 L 147 238 L 156 236 Q 182 228 201 212 Q 229 189 238 147 L 238 106 L 236 97 Q 228 70 212 52 Q 194 31 168 20 L 141 13 L 112 13 Z " /><path fill="rgb(0,7,5)" stroke="rgb(0,7,5)" stroke-width="1" opacity="0.09019607843137255" d="M 39.5 101 L 44 101.5 L 39.5 102 L 39.5 101 Z " /><path fill="rgb(0,7,5)" stroke="rgb(0,7,5)" stroke-width="1" opacity="0.09019607843137255" d="M 47.5 101 L 51 101.5 L 47.5 102 L 47.5 101 Z " /><path fill="rgb(0,7,5)" stroke="rgb(0,7,5)" stroke-width="1" opacity="0.09019607843137255" d="M 151.5 101 L 154 102.5 L 154 132.5 L 152.5 135 L 152 133.5 L 153 132.5 L 153 102 L 150.5 103 L 151.5 101 Z " /><path fill="rgb(0,7,5)" stroke="rgb(0,7,5)" stroke-width="1" opacity="0.09019607843137255" d="M 190.5 101 Q 195 100 196 102.5 L 194.5 105 L 192 104.5 L 195 104 Q 196.3 100.3 190.5 102 L 190.5 101 Z " /><path fill="rgb(0,7,5)" stroke="rgb(0,7,5)" stroke-width="1" opacity="0.09019607843137255" d="M 166.5 102 L 170 102.5 L 165.5 104 L 166.5 102 Z " /><path fill="rgb(0,7,5)" stroke="rgb(0,7,5)" stroke-width="1" opacity="0.09019607843137255" d="M 35.5 103 L 32.5 107 L 35.5 103 Z " /><path fill="rgb(0,7,5)" stroke="rgb(0,7,5)" stroke-width="1" opacity="0.09019607843137255" d="M 54.5 103 L 57.5 107 L 54.5 103 Z " /><path fill="rgb(0,7,5)" stroke="rgb(0,7,5)" stroke-width="1" opacity="0.09019607843137255" d="M 186.5 103 L 184 106.5 L 182.5 111 L 182 108.5 L 186.5 103 Z " /><path fill="rgb(0,7,5)" stroke="rgb(0,7,5)" stroke-width="1" opacity="0.09019607843137255" d="M 41.5 104 Q 49.5 102.5 52 106.5 L 50.5 106 L 41.5 105 L 39.5 106 L 39.5 105 L 41.5 104 Z " /><path fill="rgb(0,7,5)" stroke="rgb(0,7,5)" stroke-width="1" opacity="0.09019607843137255" d="M 71.5 104 L 74 105.5 L 73.5 114 L 73 105 L 71 105.5 L 71 112.5 L 70 112.5 Q 68.2 105.8 71.5 104 Z " /><path fill="rgb(0,7,5)" stroke="rgb(0,7,5)" stroke-width="1" opacity="0.09019607843137255" d="M 170.5 104 L 171 105.5 Q 170.5 108.5 166.5 108 L 165.5 106 L 168.5 107 L 170.5 104 Z " /><path fill="rgb(0,7,5)" stroke="rgb(0,7,5)" stroke-width="1" opacity="0.09019607843137255" d="M 37.5 106 L 36.5 108 L 37.5 106 Z " /><path fill="rgb(0,7,5)" stroke="rgb(0,7,5)" stroke-width="1" opacity="0.09019607843137255" d="M 188.5 106 L 187.5 108 L 188.5 106 Z " /><path fill="rgb(0,7,5)" stroke="rgb(0,7,5)" stroke-width="1" opacity="0.09019607843137255" d="M 31.5 108 L 32 113.5 L 31 113.5 L 31.5 108 Z " /><path fill="rgb(0,7,5)" stroke="rgb(0,7,5)" stroke-width="1" opacity="0.09019607843137255" d="M 58.5 108 L 59 111 Q 55.2 112 54 109.5 L 55.5 110 Q 59 111 58.5 108 Z " /><path fill="rgb(0,7,5)" stroke="rgb(0,7,5)" stroke-width="1" opacity="0.09019607843137255" d="M 35.5 109 L 36 113.5 L 35 113.5 L 35.5 109 Z " /><path fill="rgb(0,7,5)" stroke="rgb(0,7,5)" stroke-width="1" opacity="0.09019607843137255" d="M 92.5 114 L 94 114.5 L 94 131.5 L 93 131.5 L 93 115.5 L 92.5 114 Z " /><path fill="rgb(0,7,5)" stroke="rgb(0,7,5)" stroke-width="1" opacity="0.09019607843137255" d="M 112 114 L 114 114.5 L 112 115.5 L 112 114 Z " /><path fill="rgb(0,7,5)" stroke="rgb(0,7,5)" stroke-width="1" opacity="0.09019607843137255" d="M 141.5 114 Q 147.1 114.5 149 118.5 L 145.5 116 L 141.5 115 L 141.5 114 Z " /><path fill="rgb(0,7,5)" stroke="rgb(0,7,5)" stroke-width="1" opacity="0.09019607843137255" d="M 166.5 114 L 170 115.5 L 170 141.5 L 168.5 142 L 169 140.5 L 169 115.5 L 166 115 L 166 140.5 L 167 141.5 L 165 140.5 L 165 115.5 L 166.5 114 Z " /><path fill="rgb(0,7,5)" stroke="rgb(0,7,5)" stroke-width="1" opacity="0.09019607843137255" d="M 197.5 114 L 201 115.5 L 199.5 115 Q 196.5 115.5 197.5 114 Z " /><path fill="rgb(0,7,5)" stroke="rgb(0,7,5)" stroke-width="1" opacity="0.09019607843137255" d="M 220 114 Q 225.6 111.8 224 117.5 L 222.5 120 L 222 118.5 L 223 115 L 220 116.5 L 218.5 120 L 218 118.5 L 220 114 Z " /><path fill="rgb(0,7,5)" stroke="rgb(0,7,5)" stroke-width="1" opacity="0.09019607843137255" d="M 32.5 115 L 36 119.5 L 32 116.5 L 32.5 115 Z " /><path fill="rgb(0,7,5)" stroke="rgb(0,7,5)" stroke-width="1" opacity="0.09019607843137255" d="M 36.5 115 L 43 118.5 L 40.5 119 L 36.5 115 Z " /><path fill="rgb(0,7,5)" stroke="rgb(0,7,5)" stroke-width="1" opacity="0.09019607843137255" d="M 65 115 L 69 115.5 L 66 116 Q 64.7 119.3 69.5 118 L 71 119.5 L 71 135.5 L 70 135.5 L 70 119.5 L 66.5 119 L 65 115 Z " /><path fill="rgb(0,7,5)" stroke="rgb(0,7,5)" stroke-width="1" opacity="0.09019607843137255" d="M 75.5 115 L 81 115.5 L 75.5 116 L 75.5 115 Z " /><path fill="rgb(0,7,5)" stroke="rgb(0,7,5)" stroke-width="1" opacity="0.09019607843137255" d="M 177 115 L 181 115.5 L 178 116 Q 176.8 119 180.5 118 L 180.5 119 L 177 117.5 L 177 115 Z " /><path fill="rgb(0,7,5)" stroke="rgb(0,7,5)" stroke-width="1" opacity="0.09019607843137255" d="M 187.5 115 L 194 115 L 194 117.5 Q 192.8 120.3 187.5 119 L 187.5 118 Q 194.4 120 193 116 L 187.5 116 L 187.5 115 Z " /><path fill="rgb(0,7,5)" stroke="rgb(0,7,5)" stroke-width="1" opacity="0.09019607843137255" d="M 130.5 116 L 129 118.5 L 127.5 121 L 128 119.5 L 130.5 116 Z " /><path fill="rgb(0,7,5)" stroke="rgb(0,7,5)" stroke-width="1" opacity="0.09019607843137255" d="M 80.5 117 L 79.5 119 L 74 119 L 74 132.5 L 73 132.5 L 73 119.5 L 74.5 118 Q 79.3 119.3 80.5 117 Z " /><path fill="rgb(0,7,5)" stroke="rgb(0,7,5)" stroke-width="1" opacity="0.09019607843137255" d="M 136.5 117 Q 143.2 115.2 145 118.5 L 143.5 118 Q 133.4 116.4 131 122.5 L 130.5 124 L 130 122.5 L 136.5 117 Z " /><path fill="rgb(0,7,5)" stroke="rgb(0,7,5)" stroke-width="1" opacity="0.09019607843137255" d="M 44.5 119 L 49 119.5 L 44.5 120 L 44.5 119 Z " /><path fill="rgb(0,7,5)" stroke="rgb(0,7,5)" stroke-width="1" opacity="0.09019607843137255" d="M 146.5 119 L 150 124.5 L 149 124.5 L 146.5 119 Z " /><path fill="rgb(0,7,5)" stroke="rgb(0,7,5)" stroke-width="1" opacity="0.09019607843137255" d="M 198.5 119 L 203 126.5 L 201 125.5 L 198.5 119 Z " /><path fill="rgb(0,7,5)" stroke="rgb(0,7,5)" stroke-width="1" opacity="0.09019607843137255" d="M 185.5 120 L 186 141.5 L 185 141.5 L 185.5 120 Z " /><path fill="rgb(0,7,5)" stroke="rgb(0,7,5)" stroke-width="1" opacity="0.09019607843137255" d="M 42.5 122 L 47 122.5 L 42.5 123 L 42.5 122 Z " /><path fill="rgb(0,7,5)" stroke="rgb(0,7,5)" stroke-width="1" opacity="0.09019607843137255" d="M 55.5 122 L 59 127.5 L 58 127.5 L 55.5 122 Z " /><path fill="rgb(0,7,5)" stroke="rgb(0,7,5)" stroke-width="1" opacity="0.09019607843137255" d="M 51.5 124 L 55 128.5 L 54 128.5 L 51.5 124 Z " /><path fill="rgb(0,7,5)" stroke="rgb(0,7,5)" stroke-width="1" opacity="0.09019607843137255" d="M 129.5 125 L 130 130.5 L 129 130.5 L 129.5 125 Z " /><path fill="rgb(0,7,5)" stroke="rgb(0,7,5)" stroke-width="1" opacity="0.09019607843137255" d="M 215.5 125 L 216 126.5 L 214.5 129 L 214 127.5 L 215.5 125 Z " /><path fill="rgb(0,7,5)" stroke="rgb(0,7,5)" stroke-width="1" opacity="0.09019607843137255" d="M 219.5 125 L 220 126.5 L 218.5 129 L 218 127.5 L 219.5 125 Z " /><path fill="rgb(0,7,5)" stroke="rgb(0,7,5)" stroke-width="1" opacity="0.09019607843137255" d="M 150.5 126 L 151 129.5 L 150 129.5 L 150.5 126 Z " /><path fill="rgb(0,7,5)" stroke="rgb(0,7,5)" stroke-width="1" opacity="0.09019607843137255" d="M 55.5 130 L 56 132.5 L 55 132.5 L 55.5 130 Z " /><path fill="rgb(0,7,5)" stroke="rgb(0,7,5)" stroke-width="1" opacity="0.09019607843137255" d="M 126.5 131 L 130 137.5 L 127 135.5 L 126.5 131 Z " /><path fill="rgb(0,7,5)" stroke="rgb(0,7,5)" stroke-width="1" opacity="0.09019607843137255" d="M 149.5 131 L 150 132.5 L 145.5 138 L 142.5 139 L 142.5 138 L 148 134.5 L 149.5 131 Z " /><path fill="rgb(0,7,5)" stroke="rgb(0,7,5)" stroke-width="1" opacity="0.09019607843137255" d="M 30.5 132 L 34 132.5 L 30.5 133 L 30.5 132 Z " /><path fill="rgb(0,7,5)" stroke="rgb(0,7,5)" stroke-width="1" opacity="0.09019607843137255" d="M 90.5 132 L 91 134.5 L 90 134.5 L 90.5 132 Z " /><path fill="rgb(0,7,5)" stroke="rgb(0,7,5)" stroke-width="1" opacity="0.09019607843137255" d="M 130.5 132 L 135 137.5 L 130 133.5 L 130.5 132 Z " /><path fill="rgb(0,7,5)" stroke="rgb(0,7,5)" stroke-width="1" opacity="0.09019607843137255" d="M 111.5 133 L 112 134.5 L 108 137.5 L 111.5 133 Z " /><path fill="rgb(0,7,5)" stroke="rgb(0,7,5)" stroke-width="1" opacity="0.09019607843137255" d="M 30.5 134 L 35.5 140 L 40 141.5 L 37.5 142 L 30 135.5 L 30.5 134 Z " /><path fill="rgb(0,7,5)" stroke="rgb(0,7,5)" stroke-width="1" opacity="0.09019607843137255" d="M 34.5 134 L 36.5 137 L 34.5 134 Z " /><path fill="rgb(0,7,5)" stroke="rgb(0,7,5)" stroke-width="1" opacity="0.09019607843137255" d="M 54.5 134 L 51.5 138 L 54.5 134 Z " /><path fill="rgb(0,7,5)" stroke="rgb(0,7,5)" stroke-width="1" opacity="0.09019607843137255" d="M 58.5 134 L 59 135.5 L 55.5 140 L 57 137.5 L 58.5 134 Z " /><path fill="rgb(0,7,5)" stroke="rgb(0,7,5)" stroke-width="1" opacity="0.09019607843137255" d="M 74.5 134 L 77 137.5 L 74 135.5 L 74.5 134 Z " /><path fill="rgb(0,7,5)" stroke="rgb(0,7,5)" stroke-width="1" opacity="0.09019607843137255" d="M 215.5 134 L 216 135.5 L 214.5 138 L 214 136.5 L 215.5 134 Z " /><path fill="rgb(0,7,5)" stroke="rgb(0,7,5)" stroke-width="1" opacity="0.09019607843137255" d="M 95.5 135 L 97.5 138 L 95.5 135 Z " /><path fill="rgb(0,7,5)" stroke="rgb(0,7,5)" stroke-width="1" opacity="0.09019607843137255" d="M 91.5 136 L 94 139.5 L 92 138.5 L 91.5 136 Z " /><path fill="rgb(0,7,5)" stroke="rgb(0,7,5)" stroke-width="1" opacity="0.09019607843137255" d="M 151.5 136 L 148.5 140 L 151.5 136 Z " /><path fill="rgb(0,7,5)" stroke="rgb(0,7,5)" stroke-width="1" opacity="0.09019607843137255" d="M 78.5 138 L 82 138.5 L 78.5 139 L 78.5 138 Z " /><path fill="rgb(0,7,5)" stroke="rgb(0,7,5)" stroke-width="1" opacity="0.09019607843137255" d="M 208.5 138 L 210 140.5 L 207.5 145 L 207 143.5 L 209 139.5 L 208.5 138 Z " /><path fill="rgb(0,7,5)" stroke="rgb(0,7,5)" stroke-width="1" opacity="0.09019607843137255" d="M 72.5 139 L 78 141.5 L 75.5 142 L 72.5 139 Z " /><path fill="rgb(0,7,5)" stroke="rgb(0,7,5)" stroke-width="1" opacity="0.09019607843137255" d="M 131.5 139 L 137 141.5 L 134.5 142 L 131.5 139 Z " /><path fill="rgb(0,7,5)" stroke="rgb(0,7,5)" stroke-width="1" opacity="0.09019607843137255" d="M 95.5 140 L 99 141.5 L 96.5 142 L 95.5 140 Z " /><path fill="rgb(0,7,5)" stroke="rgb(0,7,5)" stroke-width="1" opacity="0.09019607843137255" d="M 212.5 141 L 213 142.5 L 210.5 147 L 210 145.5 L 212.5 141 Z " /><path fill="rgb(0,7,5)" stroke="rgb(0,7,5)" stroke-width="1" opacity="0.09019607843137255" d="M 41.5 142 L 49 142.5 L 41.5 143 L 41.5 142 Z " /><path fill="rgb(0,7,5)" stroke="rgb(0,7,5)" stroke-width="1" opacity="0.09019607843137255" d="M 100.5 142 L 104 142.5 L 100.5 143 L 100.5 142 Z " /><path fill="rgb(0,7,5)" stroke="rgb(0,7,5)" stroke-width="1" opacity="0.09019607843137255" d="M 205.5 148 L 206 149.5 L 204 154 Q 207.7 155.5 207 152.5 L 208.5 150 L 209 151.5 L 206.5 155 L 203 153.5 L 205.5 148 Z " /><path fill="rgb(150,177,170)" stroke="rgb(150,177,170)" stroke-width="1" opacity="1" d="M 41.5 100 L 50 100.5 L 47 101.5 L 50.5 102 L 52.5 101 L 54.5 104 Q 56.2 101.2 58 105.5 L 57.5 107 L 59 107.5 L 58 110 L 55 110.5 L 58 111.5 L 55.5 112 L 54.5 109 L 52 107.5 L 51.5 106 L 50 106.5 L 50.5 105 L 46.5 106 L 46.5 105 L 49 104.5 L 41.5 104 L 41.5 105 L 44 105.5 L 41.5 106 L 39.5 105 L 39.5 107 L 37 108.5 L 36.5 110 L 35 109.5 L 35.5 114 L 37 113.5 L 39 116.5 L 38.5 118 L 40.5 117 L 40.5 119 L 46.5 118 L 46.5 119 L 44 119.5 L 48.5 120 L 51.5 119 L 55 121.5 L 55.5 123 Q 56.8 120.7 58 123.5 L 57 125.5 L 59 125.5 L 58 127.5 L 60 127.5 L 59.5 135 L 58 134.5 L 59 136.5 L 57 136.5 L 58 138.5 L 55 139.5 L 53.5 142 L 50.5 141 L 50.5 143 L 41.5 142 L 38.5 143 L 38.5 142 L 40 141.5 L 37.5 141 L 36 141.5 L 36.5 140 L 34.5 141 L 30 136.5 L 31 135.5 L 30.5 134 L 29 134.5 L 29.5 132 L 34.5 133 L 38 136.5 L 38.5 138 L 40.5 137 L 40.5 139 L 47.5 138 L 49.5 139 L 49.5 137 L 51.5 136 Q 52.8 138.3 54 135.5 L 54 133.5 L 55 127.5 Q 52.7 129.2 50.5 125 L 49 124.5 L 49.5 123 L 44.5 124 L 44.5 123 L 47 122.5 L 42.5 122 L 40.5 123 L 40.5 121 L 37.5 122 L 32 117.5 L 33 115.5 L 31 115.5 L 32 108.5 L 31.5 107 L 33 106.5 Q 30.2 104.8 34.5 103 L 36 103.5 L 37.5 101 L 43.5 102 L 43.5 101 Q 40.5 101.5 41.5 100 Z M 56 130 L 55 133 L 56 133 L 56 130 Z " /><path fill="rgb(150,177,170)" stroke="rgb(150,177,170)" stroke-width="1" opacity="1" d="M 150.5 101 L 152.5 102 Q 153.8 99.8 155 102.5 L 154.5 132 L 153.5 102 L 153 132.5 L 153.5 134 L 152 133.5 L 153 135.5 L 151 136.5 L 152 137.5 L 148.5 141 L 141.5 143 L 139.5 142 L 135.5 143 L 135.5 142 L 137 141.5 L 134.5 141 L 133 141.5 L 133.5 140 L 131.5 141 L 127 136.5 L 128 135.5 L 127.5 134 L 126 134.5 L 127 131.5 L 126 131.5 L 125.5 133 L 125 129.5 L 126 127.5 L 125 123.5 L 127 123.5 L 126 121.5 L 128 120.5 L 127.5 119 L 129 119.5 L 132.5 114 L 135.5 115 L 135.5 113 L 143 113.5 L 141 114.5 L 143.5 115 L 145 114.5 L 144.5 116 L 146.5 115 L 149 116.5 L 149 102.5 L 150.5 101 Z M 137 117 L 137 119 L 135 118 L 135 120 Q 133 124 130 123 L 131 125 L 131 127 L 130 126 L 129 126 L 130 131 L 130 130 L 131 130 L 130 134 L 132 133 Q 134 134 132 136 Q 133 138 135 136 L 137 137 L 137 139 L 139 138 L 144 139 L 144 137 L 146 138 L 145 137 Q 147 133 149 135 L 148 133 L 150 133 L 149 131 L 150 124 L 148 124 L 149 122 L 148 122 L 145 119 L 144 119 L 142 119 L 144 118 L 137 117 Z M 151 126 L 150 130 L 151 130 L 151 126 Z " /><path fill="rgb(150,177,170)" stroke="rgb(150,177,170)" stroke-width="1" opacity="1" d="M 166.5 101 L 169 101.5 L 166 102.5 L 171 103.5 L 170 105.5 Q 172.8 107.2 168.5 109 Q 164.5 109.5 164 106.5 Q 163.3 101.8 166.5 101 Z M 167 107 L 167 108 L 169 108 L 167 107 Z " /><path fill="rgb(150,177,170)" stroke="rgb(150,177,170)" stroke-width="1" opacity="1" d="M 188.5 101 L 194.5 102 L 196 101.5 L 195 103.5 Q 197.3 104.8 194.5 106 L 190.5 105 L 187.5 110 L 186 109.5 L 187 114 Q 193.1 112.3 195 115.5 L 193.5 119 L 187 118 L 187 141.5 L 185.5 143 Q 181.8 143.8 181 141.5 L 181 118.5 L 178.5 118 Q 177.3 120.3 176 117.5 L 176.5 115 L 177.5 118 L 178 116 L 181 115.5 L 178 114.5 L 181 114 L 181.5 109 L 182.5 111 L 183 108.5 L 182.5 107 L 184 107.5 L 183 105.5 L 188.5 101 Z M 193 104 L 193 105 L 195 105 L 193 104 Z M 188 115 L 188 116 Q 194 115 193 118 L 194 118 L 194 115 L 188 115 Z M 186 120 L 185 142 L 186 142 L 186 120 Z " /><path fill="rgb(150,177,170)" stroke="rgb(150,177,170)" stroke-width="1" opacity="1" d="M 70.5 104 L 72.5 105 Q 73.8 102.8 75 105.5 L 75 114 L 80.5 114 L 82 117.5 Q 80.8 120.3 79.5 118 L 74 118.5 L 75 119.5 L 75 133.5 L 74 135.5 Q 75.8 133.9 77.5 137 Q 82 136 83 138.5 Q 83.8 142.3 81.5 143 L 76 142.5 L 78 141.5 L 75.5 141 L 74 141.5 L 74.5 140 L 72.5 141 L 72.5 139 L 70 137.5 L 69 135.5 L 69 119.5 L 69.5 118 L 65.5 119 L 64 115.5 Q 65.2 113 69 114 L 69 105.5 L 70.5 104 Z M 71 105 L 70 113 L 71 113 L 71 105 Z M 74 105 L 73 114 L 74 114 L 74 105 Z M 65 115 L 66 118 L 66 116 L 69 116 L 65 115 Z M 76 115 L 76 116 L 81 116 L 76 115 Z M 71 119 L 70 136 L 71 136 L 71 119 Z M 74 119 L 73 133 L 74 133 L 74 119 Z M 79 138 L 79 139 L 82 139 L 79 138 Z " /><path fill="rgb(150,177,170)" stroke="rgb(150,177,170)" stroke-width="1" opacity="1" d="M 30.5 109 L 31 112.5 L 30 112.5 L 30.5 109 Z " /><path fill="rgb(150,177,170)" stroke="rgb(150,177,170)" stroke-width="1" opacity="1" d="M 90.5 113 L 93 113.5 L 93 115.5 L 93.5 132 L 94.5 115 L 95 132.5 L 98.5 137 L 100 137.5 L 99.5 139 L 104.5 138 L 106.5 139 L 106.5 137 L 110.5 134 L 112 134.5 L 111 132.5 L 111 114.5 Q 111.8 112.3 115.5 113 L 117 114.5 L 117 141.5 Q 116.3 143.8 112.5 143 L 110.5 140 L 104.5 143 L 100.5 142 L 97.5 143 L 97.5 142 L 99 141.5 L 96.5 141 Q 95.3 143.3 94 140.5 L 92.5 137 Q 91.3 139.3 90 136.5 L 91 132.5 L 90 132.5 L 89.5 134 L 89 114.5 L 90.5 113 Z M 112 114 L 112 116 L 114 115 L 112 114 Z " /><path fill="rgb(150,177,170)" stroke="rgb(150,177,170)" stroke-width="1" opacity="1" d="M 166.5 113 Q 170.5 112.5 171 115.5 L 170.5 141 L 169.5 115 L 169 140.5 L 168 141.5 L 168.5 143 L 165 141.5 L 166 140.5 L 166 115.5 Q 163.8 114.3 166.5 113 Z M 167 114 L 167 115 L 169 115 L 167 114 Z " /><path fill="rgb(150,177,170)" stroke="rgb(150,177,170)" stroke-width="1" opacity="1" d="M 197.5 113 Q 201.5 112.5 202 115.5 L 210 133 L 213 132.5 L 212 130.5 L 213.5 128 L 215 128.5 L 214 126.5 L 216 126.5 L 215 124.5 L 217 123.5 L 216 121.5 L 217.5 119 L 219 119.5 L 218 117.5 L 220 117.5 L 219 115.5 L 221.5 115 Q 224.1 114.2 223 117.5 L 223.5 119 L 222 118.5 L 223 121.5 L 220.5 126 L 219 125.5 L 220 127.5 L 218 127.5 L 219 130.5 L 216.5 135 L 215 134.5 L 216 136.5 L 214 136.5 L 215 139.5 L 213.5 142 L 212 141.5 L 213 143.5 L 211 143.5 L 212 145.5 L 210 145.5 L 211 148.5 L 209.5 151 L 208 150.5 L 209 152.5 L 207 152.5 L 208 154.5 L 204.5 156 Q 201.8 154.8 204 153.5 L 203 151.5 L 205 151.5 L 204 149.5 L 206 149.5 L 205 146.5 L 206.5 144 L 208 144.5 L 207 142.5 L 209 142.5 L 208 139.5 L 208.5 138 L 207 137.5 L 207.5 136 L 205 134.5 L 201 126.5 L 202 124.5 L 200 124.5 L 201 122.5 L 199 122.5 L 200 120.5 L 198 120.5 L 198.5 119 L 197 118.5 L 198 116.5 L 196 116.5 L 197.5 113 Z M 198 114 L 198 115 L 200 115 L 198 114 Z M 205 154 L 205 155 L 207 155 L 205 154 Z " /><path fill="rgb(150,177,170)" stroke="rgb(150,177,170)" stroke-width="1" opacity="1" d="M 220.5 113 L 223 113.5 L 220.5 114 L 220.5 113 Z " /><path fill="rgb(150,177,170)" stroke="rgb(150,177,170)" stroke-width="1" opacity="1" d="M 43.5 143 L 46 143.5 L 43.5 144 L 43.5 143 Z " /></svg>